<?xml version="1.0" encoding="UTF-8"?>
<svg id="_圖層_2" data-name="圖層 2" xmlns="http://www.w3.org/2000/svg" viewBox="0 0 17.18 21.13">
  <defs>
    <style>
      .cls-1 {
        fill: #5faf74;
      }
    </style>
  </defs>
  <g id="_圖層_1-2" data-name="圖層 1">
    <g>
      <path class="cls-1" d="M.36,21.13h16.46c.2,0,.36-.16.36-.36V4.78c0-.1-.04-.19-.11-.26L12.49.11h0s-.04-.03-.05-.04c-.02-.01-.04-.03-.06-.04-.04-.02-.09-.03-.14-.03H.36C.16,0,0,.16,0,.36v20.4c0,.2.16.36.36.36ZM12.59,1.22l3.32,3.2h-3.32V1.22ZM.73.72h11.14v4.06c0,.2.16.36.36.36h4.22v15.25H.73V.72Z"/>
      <path class="cls-1" d="M12,10.36h-3.04v-3.16c0-.2-.16-.36-.36-.36s-.36.16-.36.36v3.16h-3.04c-.2,0-.36.16-.36.36s.16.36.36.36h3.04v2.85c0,.2.16.36.36.36s.36-.16.36-.36v-2.85h3.04c.2,0,.36-.16.36-.36,0-.2-.16-.36-.36-.36Z"/>
    </g>
  </g>
</svg>