<?xml version="1.0" encoding="UTF-8"?>
<svg id="_圖層_2" data-name="圖層 2" xmlns="http://www.w3.org/2000/svg" viewBox="0 0 31.04 27.04">
  <defs>
    <style>
      .cls-1 {
        fill: #fff;
      }
    </style>
  </defs>
  <g id="_圖層_1-2" data-name="圖層 1">
    <path class="cls-1" d="M15.1,3.88H4.18c-.23,0-.42.19-.42.42v15c0,.23.19.42.42.42h10.29l-6.96,6.6c-.17.16-.17.42-.02.59.16.17.42.17.59.02l7.02-6.66v6.35c0,.23.19.42.42.42s.42-.19.42-.42v-6.34l6.86,6.64c.08.08.19.12.29.12s.22-.04.3-.13c.16-.17.16-.43,0-.59l-6.83-6.61h10.16c.23,0,.42-.19.42-.42V4.3c0-.23-.19-.42-.42-.42h-10.78V.84h14.68c.23,0,.42-.19.42-.42s-.19-.42-.42-.42H.42c-.23,0-.42.19-.42.42s.19.42.42.42h14.68v3.04ZM26.3,4.72v14.16H4.6V4.72h21.7Z"/>
  </g>
</svg>