<?xml version="1.0" encoding="UTF-8"?>
<svg id="_圖層_2" data-name="圖層 2" xmlns="http://www.w3.org/2000/svg" viewBox="0 0 18.21 28.78">
  <defs>
    <style>
      .cls-1 {
        fill: #fff;
      }
    </style>
  </defs>
  <g id="_圖層_1-2" data-name="圖層 1">
    <g>
      <path class="cls-1" d="M11.45,16.1l5.97,12.45c.1.21.35.3.56.2s.3-.35.2-.56l-5.96-12.44c3.97-2.07,5.63-6.94,3.68-11.01S8.89-1.17,4.74.82-1.17,7.81.82,11.96c1.91,3.98,6.58,5.75,10.63,4.14ZM5.1,1.57c3.74-1.79,8.24-.21,10.03,3.53,1.79,3.74.21,8.24-3.53,10.03-3.74,1.79-8.24.21-10.03-3.53C-.22,7.86,1.36,3.36,5.1,1.57Z"/>
      <path class="cls-1" d="M12.25,13.58c.21-.1.3-.35.2-.56s-.35-.3-.56-.2c-2.24,1.08-4.41.95-6.44-.37-1.55-1.01-2.43-2.36-2.44-2.38-.13-.19-.38-.25-.58-.12-.19.13-.25.38-.12.58.04.06,3.91,5.94,9.95,3.05Z"/>
    </g>
  </g>
</svg>