<?xml version="1.0" encoding="UTF-8"?>
<svg id="_圖層_2" data-name="圖層 2" xmlns="http://www.w3.org/2000/svg" viewBox="0 0 906 343.66">
  <defs>
    <style>
      .cls-1 {
        fill: #5faf74;
      }

      .cls-2 {
        fill: #fff;
      }

      .cls-3 {
        fill: #b2b2b2;
      }

      #heart {
        animation: heartbeat 5s ease-in-out infinite both;
        transform-origin: 53% 52%
      }

      @keyframes heartbeat {
        0% {
          transform: scale(1);
        }
        45% {
          transform: scale(.85);
        }
      }

    </style>
  </defs>
  <g id="_切" data-name="切">
    <g id="kv-ttl">
      <g id="health">
        <path class="cls-2" d="M126.45,220.02c-1.08,1.21-2.42,1.48-5.25,1.62-4.98,4.85-13.34,10.91-19.94,14.28l-1.08-.81c1.48-4.45,3.1-11.32,4.04-16.7H21.78c1.08,10.1-2.16,16.97-7.14,20.07-4.58,3.1-12.12,1.48-14.28-4.31-1.48-5.52,1.75-9.7,6.33-11.99,4.71-2.42,10.51-8.76,10.24-15.63h1.75c1.08,2.83,1.89,5.52,2.43,8.08h82.31l8.35-8.49,14.68,13.88ZM106.51,236.59s9.97,7.68,16.03,13.07c-.27,1.48-1.75,2.16-3.77,2.16h-29.91v47.55c0,11.18-2.83,17.65-22.9,19.4-.54-5.25-1.48-9.03-4.18-11.45-2.83-2.56-6.6-4.45-15.09-5.79v-1.89s18.86,1.08,22.5,1.08c2.42,0,3.23-.67,3.23-2.56v-46.34H6.96l-1.08-3.91h66.55v-24.52l21.15,2.02c-.27,1.89-1.62,3.1-4.71,3.5v18.99h9.03l8.62-11.32ZM24.07,256.39c43.78,10.51,29.5,43.24,13.2,30.98-1.62-10.78-8.08-22.09-14.41-30.17l1.21-.81ZM51.15,192c39.47.54,23.98,31.52,8.08,19.8-.13-6.87-3.91-14.55-9.03-18.99l.94-.81Z"/>
        <path class="cls-2" d="M187.62,210.19s7.14,5.66,11.59,9.83c-.4,1.48-1.75,2.16-3.64,2.16h-46.2l-1.08-3.77h33l6.33-8.22ZM178.06,235.51l5.93-7.68s6.6,5.39,10.78,9.29c-.4,1.48-1.62,2.16-3.5,2.16h-37.18l-1.08-3.77h25.06ZM183.99,245.21s6.6,5.39,10.78,9.29c-.4,1.48-1.62,2.16-3.5,2.16h-37.18l-1.08-3.77h25.06l5.93-7.68ZM192.07,307.04c-.13,1.08-6.74,4.18-11.45,4.18h-2.29v-6.74h-10.51v8.35c0,1.21-5.79,4.31-11.59,4.31h-2.02v-52.94l14.01,5.79h8.89l6.33-6.74,13.34,9.97c-.67.81-2.43,1.89-4.72,2.42v31.39ZM159.2,194.56c34.62,1.62,22.23,27.75,8.49,18.59-1.21-6.47-5.66-13.61-9.7-17.92l1.21-.67ZM178.33,300.71v-26.94h-10.51v26.94h10.51ZM271.28,281.85c-1.08,1.21-2.43,1.62-5.66,1.89-4.31,6.2-9.7,11.32-16.03,15.76,8.35,1.75,17.24,2.83,26.13,3.37v1.62c-5.66,1.62-9.16,6.33-10.37,13.34-11.32-2.42-21.55-5.66-30.31-10.24-12.39,5.52-27.35,9.03-44.32,10.64l-.67-2.02c13.87-3.1,26.4-7.68,36.64-13.74-7.54-5.39-13.74-12.12-18.32-21.01h-11.05l-1.21-3.91h53.88l7.54-6.87h-41.89v.81c0,.94-4.31,4.18-11.18,4.18h-2.42v-32.87c-2.83,2.02-5.66,3.91-8.49,5.52l-1.62-1.35c5.93-7.68,12.53-20.34,16.84-32.87l4.85,2.16v-7.81h-17.11l-1.21-3.91h18.32v-12.53l17.51,1.62c-.27,1.35-1.21,2.56-4.04,2.96v16.03l.27-.13c4.85.13,8.35.81,10.91,1.89v-22.36l17.65,1.62c-.27,1.35-1.08,2.56-4.04,2.96v7.95h6.47l5.79-7.81s6.47,5.52,10.37,9.56c-.4,1.48-1.75,2.16-3.5,2.16h-19.13v5.66c0,.94-4.98,2.56-9.56,2.96,5.12,5.66-3.37,14.01-11.05,8.22,0-4.04-2.02-8.35-4.18-11.05-.27.94-6.2,2.83-10.91,2.83h-.67l10.24,4.45c-.67,1.48-2.56,2.56-5.39,2.16-.94,1.35-2.02,2.69-2.96,4.04h36.64l6.06-7.54s6.87,5.39,11.18,9.29c-.27,1.48-1.62,2.16-3.5,2.16h-24.52v9.03h8.76l5.66-6.87s6.2,4.85,10.37,8.62c-.4,1.48-1.75,2.16-3.5,2.16h-21.28v9.03h8.76l5.66-6.74s6.33,4.85,10.37,8.49c-.4,1.48-1.62,2.16-3.37,2.16h-21.42v9.29h12.66l6.6-8.08s7.68,5.52,12.39,9.83c-.27,1.48-1.75,2.16-3.64,2.16h-12.26l12.26,11.18ZM211.74,281.45c5.93,6.6,14.41,11.32,24.38,14.68,5.39-4.31,9.83-9.29,13.2-14.68h-37.58ZM230.06,231.61h-14.41v9.03h14.41v-9.03ZM230.06,244.54h-14.41v9.03h14.41v-9.03ZM215.64,266.77h14.41v-9.29h-14.41v9.29Z"/>
        <path class="cls-2" d="M697.46,250.73c-.81,1.35-2.15,1.75-4.85,2.16-1.21,13.34-3.64,26.54-9.56,38.39,10.91,7.68,25.73,9.7,46.2,9.7,6.6,0,22.23,0,29.91-.13v1.62c-5.12,1.21-7.81,6.6-7.95,12.66h-23.04c-23.04,0-38.93-3.5-49.98-15.9-4.98,7.27-11.72,13.74-21.15,18.99l-1.21-1.75c7.95-7.14,13.07-15.76,16.57-25.33-4.45-7.81-7.68-17.92-10.1-30.71l1.62-.67c2.96,9.97,6.33,17.51,10.91,23.3,2.42-10.1,3.5-20.88,4.04-31.93h-4.98l-4.45,4.45-11.45-7.68c1.21-.94,2.96-2.02,4.71-2.69,4.18-9.56,9.83-25.46,12.93-35.43h-11.99l-.94-2.96c-2.56,8.08-5.52,15.76-8.89,23.04l7.41,2.69c-.54,1.21-1.75,2.16-4.31,2.56v79.07c-.13.94-6.2,4.04-11.72,4.04h-2.69v-68.7c-3.5,5.12-7.27,9.7-11.45,13.88l-1.75-.94c8.35-18.05,16.3-45.26,19.8-70.72l20.75,6.2c-.54,1.62-2.16,2.83-5.25,2.83-.54,1.75-1.08,3.37-1.62,5.12h12.12l6.06-6.06,12.26,10.91c-1.08,1.21-3.23,1.75-5.79,2.16-3.23,9.03-9.03,24.25-13.2,34.35h3.1l7.01-7.27,12.93,10.78ZM693.01,206.95h15.36v-14.41l17.78,1.89c-.4,1.62-1.35,2.96-4.45,3.5v9.03h9.03l6.06-6.2,12.26,9.29c-.67.81-2.29,1.75-4.45,2.16v12.66h1.08l4.85-8.62s5.66,6.33,8.62,10.37c-.27,1.48-1.48,2.16-3.23,2.16h-11.32v18.32c-.13.94-6.47,3.37-10.51,3.37h-2.16v-3.5h-10.24v14.41h10.37l6.47-9.03s7.14,6.33,11.32,10.64c-.27,1.48-1.62,2.16-3.5,2.16h-24.65v13.34h15.09l6.6-9.43s7.54,6.6,11.85,11.18c-.27,1.48-1.62,2.16-3.37,2.16h-30.17v12.12c0,1.35-5.79,4.45-10.78,4.45h-2.56v-16.57h-17.92l-1.08-3.91h18.99v-13.34h-13.88l-1.08-3.77h14.95v-14.41h-12.39l-1.08-3.77h13.47v-14.41h-21.69l-1.08-3.91h22.77v-14.14h-14.15l-1.21-3.77ZM721.71,210.73v14.14h10.24v-14.14h-10.24ZM731.94,228.78h-10.24v14.41h10.24v-14.41Z"/>
        <path class="cls-2" d="M804.43,244.94c0,23.04-1.21,52.94-24.52,72.88l-1.48-.94c11.05-21.15,11.72-47.69,11.72-71.93v-42.3l16.57,6.06h40.28c-1.62-.27-3.37-1.08-4.98-2.29-.27-5.25-3.23-10.91-5.79-14.14l.94-.67c25.73.94,22.09,15.49,13.2,17.11h32.2l8.08-11.05s9.16,7.54,14.68,12.8c-.4,1.48-1.75,2.16-3.64,2.16h-97.26v32.33ZM836.49,287.38c-5.79,5.25-14.55,13.34-27.08,23.04-.4,1.75-1.62,3.23-3.1,3.77l-8.22-15.9c6.47-1.62,22.36-6.74,37.85-12.26l.54,1.35ZM895.63,234.57s6.6,5.79,10.37,9.83c-.27,1.48-1.62,2.16-3.37,2.16h-12.93v15.36c-.13.81-3.77,3.1-7.95,4.31l10.91,8.89c-.81.94-2.16,1.35-4.98.54-6.2,2.96-19.26,6.74-27.21,9.29l-1.08-1.35c4.58-4.31,10.51-11.32,15.09-16.57h-.4v-3.64h-18.32v37.72c0,10.64-2.29,16.3-19.13,17.65-.27-4.58-.81-8.08-2.43-10.24-1.75-2.02-4.04-3.77-9.7-4.71v-1.89s10.64.81,12.93.81c2.02,0,2.56-.54,2.56-2.02v-37.31h-27.75l-1.21-3.91h28.96v-12.93h-33.81l-1.08-3.91h34.89v-12.93h-27.62l-1.21-3.77h28.83v-12.26l20.48,1.89c-.13,2.02-1.48,3.23-4.71,3.77v6.6h17.24l6.74-6.87,13.74,10.1c-.54.81-1.89,1.62-3.77,2.02v11.45h.27l5.66-8.08ZM809.01,266.77c35.7-2.96,29.23,23.71,14.68,17.65-2.83-5.93-9.97-12.8-15.63-16.7l.94-.94ZM855.75,242.65h18.32v-12.93h-18.32v12.93ZM874.07,246.56h-18.32v12.93h18.32v-12.93ZM858.99,288.72c47.15-.27,44.99,28.83,28.96,24.52-6.33-7.95-20.07-17.92-29.91-23.3l.94-1.21Z"/>
      </g>
      <g id="lung">
        <path class="cls-2" d="M528.14,142.23l-12.19,18.51h-19.13v-34.13c5.46-.96,7.15-3.13,7.57-6.49l-30.26-3.37v43.99h-47.71l1.68,6.73h46.03v30.2c-.1,0,1.15,145.99,1.15,145.99h3.57c9.04,0,17.65-5.77,17.86-7.45l.11-168.74h47.5c2.94,0,5.04-1.2,5.67-3.85-7.99-8.89-21.86-21.39-21.86-21.39Z"/>
        <path class="cls-2" d="M426.5,139.35l-21.72-18.27-9.75,12.5h-17.95l-24.6-10.1v85.09c0,44.71.22,94.22-14.19,133.4l3.1,1.68c22.16-26.68,29.04-61.53,31.25-94.7l7.31,14.9c2.22-1.44,3.77-4.33,3.99-7.21,4.88-7.21,9.31-13.46,13.08-19.23v74.75c0,3.12-.66,4.57-4.21,4.57-3.77,0-20.17-1.2-20.17-1.2v3.61c8.42,1.44,12.41,4.09,14.85,7.45,2.44,3.37,3.32,9.13,3.99,16.34,23.72-2.4,26.82-11.54,26.82-28.36v-170.9c3.99-.96,6.87-2.64,8.2-4.33ZM397.02,225.16c-9.31,5.05-17.73,9.61-23.94,12.74.44-10.34.44-20.43.44-29.81v-21.15c6.65,3.85,12.86,8.65,16.62,12.98,2.66.48,5.1.24,6.87-.72v25.96ZM397.02,180.69c-4.43-3.37-11.97-5.29-23.49-3.37v-36.78h23.49v40.14Z"/>
        <g id="heart">
          <path class="cls-1" d="M579.93,319.02c-.58-26.71-4.1-57.04-12.06-82.54-8.72-27.84-29.83-42.74-49.8-62.12-2.74-2.34-6.06-3.2-9.45-1.72-4.82,2.1-5.33,8.13-6.5,12.66-1.54,5.94-2.74,12-4.12,17.98l-.91-7.56c-.09-6.15-.53-12.22-.39-18.41.06-2.87,1.13-8.69.59-11.23-.41-1.95-1.8-3.38-3.51-4.23-4.26-2.15-14.42-2.22-18.23.93-2.24,1.88-1.76,4.09-1.68,6.83.34,11.82,1.58,23.45.39,35.31-.31,2.92-.98,5.79-1.48,8.66-.56.11-.45-.55-.52-.92-1.95-9.97-3.35-20.12-5.48-30.07-.81-3.76-.93-7.23-4.7-9.29-2.76-1.51-5.22-1.7-8.08-.39-19.89,16.98-39.79,31.78-48.96,57.42-9,25.16-13.01,48.69-13.62,75.29-.15,6.5.11,13.01,0,19.51,1.48,2.86,3.33,5.5,6.81,5.89,5.15.57,15.41-4.92,20.71-6.91,10.49-3.91,20.18-5.89,30.72-9.02,14.73-4.38,25.33-15.09,26.42-31.01.84-12.03.08-26.53-.35-38.65-.05-1.11-.19-3.05,0-4.04.17-.85,5.44-6.74,6.54-8.54,1.59-2.6,2.82-5.4,3.94-8.22,2.17,4.69,4.89,9.13,8.57,12.78-.19,7.23.5,14.46.83,21.64.58,12.52-.77,30.32,5.72,41.03,10.23,16.9,25.76,13.39,41.84,18.54,9.31,2.99,16.43,8.88,24.7,12.12,3.44,1.33,5.99,1.18,8.89-1.18,3.68-2.99,3.25-6.13,3.15-10.51ZM479.42,165.53c2.23-.99,7.61-.92,10.03-.47.48.09,3.13.89,3.22,1.02.78,1.07-2.95,1.78-3.5,1.83-3.59.37-7.39-.24-10.85-1.1-.14-.81.51-1.02,1.1-1.28ZM575.51,323.84c-.28,2.41-2.83,3.94-5.16,3.32-2.2-.59-6.81-3.94-9.19-5.17-14.28-7.4-21.71-8.68-37.2-11.76-16.94-3.39-22.19-14.97-23.19-30.92-.64-10.1-1.17-20.82-1.48-30.93-.07-2.39.08-4.81.01-7.19.34-.38,2.81,1.82,3.34,2.01,1.96.74,3.42-.92,2.85-2.85-.24-.81-5.07-3.89-6.19-4.87-3.76-3.25-7.18-7.7-9.01-12.34-.73-1.87-1.71-7.45-2.76-8.27-3.52-2.72-3.68,3.08-4.23,4.96-2.03,7.07-5.31,13.31-10.68,18.42-.9.85-5.87,4.54-6.02,5.03-1.06,3.48,2.88,3.9,4.72,1.58-.14.96.3,1.84.37,2.76.77,10.06.72,26.35.02,36.46-1.76,25.59-23.8,25.93-42.55,31.82-3.55,1.12-7.07,2.47-10.57,3.79-4.56,1.71-14.09,6.63-18.16,7.24-.28.04-.86.2-.89-.17,3.7-3.78,7-7.97,10.66-11.79,1.2-1.25,4.12-3.28,4.77-4.46.72-1.35-.2-1.98-1.55-1.52-.67.22-4.76,4.56-5.61,5.44-3.42,3.55-6.54,7.48-9.92,11.07-1.45.98-1.96-1.38-2.06-2.4-.9-9.72.93-20.41.37-30.21,1.26-8.48.98-19.82,3.79-27.87.12-.32.26-.65.64-.65-.31,2.59,4.57,16.52,6.46,16.94,2.33-1.05-.8-4.9-1.48-6.64-1.84-4.74-4.12-12.81-3.48-17.82.33-2.5,2.02-5.3,2.18-7.94,1.17,1.04,1.59,2.59,2.59,3.85,6.45,8.21,19.94,9.19,29.57,9.05,2.14-3.48-7.25-2.06-9.52-2.23-7.87-.58-19.81-4.82-21.08-13.89-.28-1.97,2.31-9.77,3.13-12.15,8.76-25.83,27.27-38.95,46.66-56.42,2.96-1.94,5.99.34,6.41,3.53l2.26,39.72c.38,1.44,1.44,1.77,2.13.3.11-6.33-.64-12.74-1.05-19.05-.02-.43-.26-2.03.38-2.03l3.71,21.16c-.3,2.59-3.51,4.38-3.31,6.96.12,1.68,1.97,2.16,3.28,1.51.63-.31,3.98-5.89,4.5-6.92,4.22-8.4,5.11-17.83,5.08-27.13,2.11-.25,4.79,1.23,6.76.74.63-.15.55-1.7.19-2.17-1.29-.4-2.74.21-3.84.27-.21.01-.15-.6-.41-.7-.6-.24-2.61-.54-2.7-.97l-.35-14.11c1.62.34,8.41,2.13,7.75-.89-.2-.92-6.67-.31-7.58-1.68-.48-.73-.04-5.3-.53-6.65,4.62,1.82,9.61,1.65,14.35.38l-.41,14.67c-2.13,1.02-4.46.95-6.76,1.18-.45.05-.85.57-1.11.58-.25,0-4.55-2.27-3.83.61.54,2.2,3.27.27,3.83.24.24,0-.02.7.71.79,2.42.33,4.83-.57,7.2-.77l.66,13.37c-.7,2.33-8.02.87-7.26,3.34.57,1.85,6.38-.09,7.71-.51-.17,2.07,1.31,4.55-.74,6.06-.79.58-2.92.69-2.54,2.14.57,2.15,3.57-.43,4.02-.11.73,4.25,2.22,8.3,4.35,12.03,1.15,1.97,4.09,6.5,5.6,8.02,1.61,1.62,4.13,1.97,4.06-.72-.07-2.29-6.66-9.19-7.57-12.7-.68-2.61,1.16-11.31,1.77-14.44.91-4.7,2.11-9.45,3.17-14.11.11-.52.2-1.91.77-2.01-1.49,10.57-.96,20.88,1.29,31.3,2.01,9.31,5.22,18.2,6.08,27.79,1.55,17.26-5.01,31.04,8.46,45.66,5.75,6.25,13,8.26,20.14,12.26,2.08,1.17,8.24,5.76,9.67,6.18,1.28.35,1.3-1.05,1.05-2-2.68-1.62-5.2-3.55-7.91-5.15-9.68-5.72-19.42-7.79-25.44-18.37-6.92-12.16-2.65-23.36-3.38-36.4-.81-14.81-7.65-28.72-8.49-43.4-.54-9.39,1.19-18.65,2.21-27.92,1.37-1.16,3.44-.67,4.78.32,15.2,16.04,34.57,29.11,44.39,49.48,3.28,6.8,7.37,17.64,6.33,25.12-1.15,8.14-4.72,13.7-9.97,19.66-.68.78-2,.78-1.74,2.52.39,2.59,4.56-2.17,5.36-3.11,4.53-5.3,5.5-9.52,7.94-15.64.15-.38.13-.89.71-.93,2.44,11.62,4.75,23.3,5.89,35.15.9,9.26,1.62,19.79,1.85,29.06.05,1.54.17,3.74-.01,5.18Z"/>
          <path class="cls-2" d="M575.52,318.65c-.24-9.27-.96-19.81-1.85-29.06-1.15-11.85-3.45-23.53-5.89-35.15-.58.05-.55.56-.71.93-2.43,6.12-3.4,10.33-7.94,15.64-.8.93-4.97,5.69-5.36,3.11-.26-1.74,1.05-1.74,1.74-2.52,5.24-5.96,8.82-11.53,9.97-19.66,1.04-7.48-3.05-18.32-6.33-25.12-9.83-20.37-29.19-33.45-44.39-49.48-1.35-.99-3.41-1.48-4.78-.32-1.02,9.27-2.75,18.53-2.21,27.92.84,14.68,7.68,28.59,8.49,43.4.73,13.04-3.54,24.23,3.38,36.4,6.02,10.57,15.75,12.65,25.44,18.37,2.72,1.59,5.23,3.53,7.91,5.15.25.95.22,2.35-1.05,2-1.43-.41-7.59-5.01-9.67-6.18-7.13-4-14.38-6.01-20.14-12.26-13.46-14.62-6.91-28.4-8.46-45.66-.86-9.59-4.07-18.48-6.08-27.79-2.24-10.42-2.78-20.73-1.29-31.3-.57.09-.66,1.49-.77,2.01-1.05,4.67-2.26,9.41-3.17,14.11-.61,3.13-2.46,11.83-1.77,14.44.91,3.51,7.5,10.4,7.57,12.7.07,2.69-2.46,2.34-4.06.72-1.51-1.52-4.45-6.05-5.6-8.02-2.13-3.73-3.61-7.78-4.35-12.03-.45-.32-3.45,2.26-4.02.11-.38-1.45,1.75-1.56,2.54-2.14,2.05-1.51.58-3.99.74-6.06-1.33.41-7.14,2.36-7.71.51-.76-2.47,6.57-1.02,7.26-3.34l-.66-13.37c-2.37.2-4.78,1.1-7.2.77-.73-.09-.47-.79-.71-.79-.55.04-3.28,1.96-3.83-.24-.72-2.88,3.58-.61,3.83-.61.26-.01.66-.53,1.11-.58,2.29-.24,4.63-.17,6.76-1.18l.41-14.67c-4.74,1.28-9.73,1.44-14.35-.38.5,1.35.05,5.92.53,6.65.91,1.37,7.38.76,7.58,1.68.66,3.01-6.13,1.23-7.75.89l.35,14.11c.09.43,2.1.73,2.7.97.26.09.2.71.41.7,1.1-.06,2.55-.67,3.84-.27.37.47.44,2.02-.19,2.17-1.96.48-4.64-.99-6.76-.74.04,9.29-.86,18.73-5.08,27.13-.52,1.03-3.87,6.61-4.5,6.92-1.31.65-3.16.17-3.28-1.51-.2-2.57,3.01-4.37,3.31-6.96l-3.71-21.16c-.64,0-.4,1.61-.38,2.03.41,6.31,1.16,12.72,1.05,19.05-.69,1.48-1.75,1.15-2.13-.3l-2.26-39.72c-.43-3.19-3.45-5.47-6.41-3.53-19.39,17.47-37.9,30.59-46.66,56.42-.81,2.39-3.41,10.18-3.13,12.15,1.28,9.07,13.22,13.31,21.08,13.89,2.27.18,11.66-1.25,9.52,2.23-9.64.14-23.12-.84-29.57-9.05-.99-1.26-1.42-2.81-2.59-3.85-.17,2.63-1.85,5.43-2.18,7.94-.64,5.01,1.64,13.09,3.48,17.82.67,1.74,3.8,5.59,1.48,6.64-1.89-.41-6.77-14.35-6.46-16.94-.38,0-.52.33-.64.65-2.81,8.05-2.53,19.39-3.79,27.87.57,9.8-1.26,20.49-.37,30.21.09,1.02.6,3.38,2.06,2.4,3.38-3.59,6.5-7.51,9.92-11.07.85-.89,4.94-5.22,5.61-5.44,1.35-.46,2.27.18,1.55,1.52-.65,1.18-3.57,3.21-4.77,4.46-3.66,3.81-6.97,8.01-10.66,11.79.02.37.6.2.89.17,4.07-.61,13.6-5.53,18.16-7.24,3.5-1.32,7.02-2.67,10.57-3.79,18.75-5.88,40.79-6.22,42.55-31.82.7-10.11.74-26.4-.02-36.46-.07-.92-.51-1.81-.37-2.76-1.84,2.31-5.79,1.9-4.72-1.58.15-.5,5.13-4.18,6.02-5.03,5.36-5.11,8.64-11.35,10.68-18.42.54-1.88.71-7.68,4.23-4.96,1.05.81,2.03,6.4,2.76,8.27,1.83,4.64,5.26,9.09,9.01,12.34,1.12.98,5.95,4.05,6.19,4.87.58,1.92-.89,3.59-2.85,2.85-.53-.19-3-2.39-3.34-2.01.07,2.39-.08,4.81-.01,7.19.31,10.11.84,20.83,1.48,30.93,1,15.94,6.26,27.53,23.19,30.92,15.5,3.08,22.92,4.36,37.2,11.76,2.37,1.23,6.99,4.58,9.19,5.17,2.33.63,4.88-.91,5.16-3.32.18-1.44.06-3.65.01-5.18ZM489.73,176.34c.74,0,1.35.6,1.35,1.33s-.6,1.35-1.35,1.35-1.35-.6-1.35-1.35.6-1.33,1.35-1.33ZM490.43,193.36c.8,1.9-.74,2.5-2.49,2.14-.81-1.9.73-2.5,2.49-2.14ZM452.42,288.91c-7,6.6-17.12,8.36-25.52,12.94-.76.41-5.69,4.28-4.5.67.18-.53,6.19-3.74,7.19-4.24,5.62-2.75,12.4-4.37,17.55-7.85,15.68-10.63,14.08-31.92,16.89-48.63.38-1.03,2.05-.91,2.14.3-2.18,15.48-1.55,35.31-13.75,46.81ZM483.23,212.42c-.34.12-2.95-.24-3.06-.34-.21-.21-.14-1.9.59-2.14,2.46-.83,4.22,1.92,2.47,2.48ZM484.78,203.27c-.77,1.45-3.54,1.19-3.81-.24-.34-1.77,2.73-1.51,3.52-.79.19.18.43.77.3,1.03Z"/>
        </g>
      </g>
      <g id="sub">
        <path class="cls-2" d="M200.5,10.6c-.69.78-1.82,1.04-3.82,1.13-2.95,5.39-8.08,14.68-12.34,20.15,8.51,5.82,12.25,14.25,12.25,21.28,0,8.6-2.95,13.46-12.34,13.64,0-2.69-.35-6.34-1.04-7.47-.52-.96-1.82-1.74-3.65-2.17v-1.13h4.6c.78,0,1.3-.09,1.82-.43,1.04-.69,1.65-2.26,1.65-4.95,0-6.08-1.39-12.77-5.47-18.5,1.48-5.73,3.48-16.07,4.43-22.93h-7.9v69.84c0,.69-2.87,2.95-7.56,2.95h-1.56V2.87l10.25,3.91h6.17l5.04-4.95,9.47,8.77ZM242.11,12.86c-.61.87-1.48,1.22-3.56,1.39-2.61,4.69-6.17,8.77-10.51,12.33,6.51,2.08,13.55,3.13,20.67,3.13v1.13c-3.74,2.35-5.04,5.47-5.3,9.47-7.9-1.48-15.38-4.6-21.8-9.12-7.64,4.52-16.94,7.9-27.8,9.82l-.52-1.22c8.95-3.13,16.85-7.56,22.85-13.12-2.78-2.61-5.39-5.65-7.47-9.03-4.08,3.82-8.69,6.6-13.55,8.6l-.96-.78c5.47-5.82,10.51-15.03,12.68-25.45l13.72,4.86c-.43,1.13-1.48,1.82-3.56,1.56-.69,1.3-1.39,2.52-2.17,3.74h12.16l5.82-5.47,9.29,8.17ZM238.55,56.98s5.39,4.52,8.6,7.64c-.26.96-1.13,1.39-2.35,1.39h-18.5v13.12c0,.87-4.34,2.69-7.9,2.69h-1.91v-15.81h-9.21l-3.48,4-8.51-5.39c.78-.69,1.91-1.39,3.04-1.91,1.3-4.34,2.78-10.68,3.56-14.68h-4.95l-.69-2.52h20.24v-9.73l12.42,1.22c-.17.96-.69,1.74-2.61,2v6.51h5.65l4.34-5.82s4.78,4.08,7.73,6.95c-.26.96-1.04,1.39-2.26,1.39h-15.46v15.55h7.56l4.69-6.6ZM216.48,63.59v-15.55h-5.3c-1.04,4.34-2.61,10.95-3.91,15.55h9.21ZM213.09,12.6c-.96,1.22-1.91,2.35-2.87,3.39,2.69,2.78,5.91,5.13,9.56,7.12,2.95-3.21,5.39-6.78,7.21-10.51h-13.9Z"/>
        <path class="cls-2" d="M291.02,4.43c-.35,1.04-1.48,1.82-3.39,1.82-2.35,6.69-5.13,12.86-8.34,18.42l4.52,1.65c-.35.78-1.04,1.39-2.78,1.65v51.16c-.09.69-4.08,2.87-7.9,2.87h-1.82v-45.6c-2.87,3.56-5.99,6.78-9.29,9.47l-1.13-.61c6.52-11.03,12.94-28.32,16.07-44.82l14.07,4ZM340.97,68.8c2.26,4.52,3.04,7.38.96,9.12-4.08,3.39-10.08-.09-13.29-3.47-8.69-9.64-12.77-23.45-14.51-38.57h-14.68v25.19c4.95-1.39,10.51-3.04,16.24-4.69l.26,1.04c-4.43,3.3-12.51,9.21-22.67,15.46-.69.96-1.48,1.56-2.26,2l-5.91-10.95c3.65-2,4.34-2.87,4.34-4.95V8.08l11.73,3.82c10.08-3.39,20.76-7.82,26.67-11.29l10.42,9.56c-1.04.96-2.95,1.04-5.65,0-2.87.69-6.17,1.3-9.9,1.91-.26,7.12-.09,14.33.61,21.28h3.47l5.47-7.47s6.17,5.13,9.82,8.6c-.17.96-1.13,1.39-2.35,1.39h-16.07c1.56,12.16,5.04,22.85,11.21,28.93,1.04,1.13,1.74,1.04,2.52-.35,1.13-2,2.95-6.08,4.17-9.47l1.04.17-1.65,13.64ZM319.95,69.75s4.86,4,7.9,6.86c-.26.96-1.13,1.39-2.35,1.39h-30.92l-.7-2.52h21.72l4.34-5.73ZM313.87,33.36c-.61-6.43-.87-13.03-.96-19.81-4.43.61-8.95,1.04-13.46,1.39v18.42h14.42Z"/>
        <path class="cls-3" d="M425.82,25.18c.55-3.09,1.08-7.49,1.24-10.99l-10.91.84.88,11.43c.17,2.25.26,2.25,2.6,2.06l9.7-.75,2.51-.19c.61-.05,1.73-.13,2.75-.47l.78-.06.44.05c3.2.88,3.78,1.54,3.89,3.01.31,3.98-1.73,5.8-10.48,6.47l-7.19.56c1.29.95,6.26,4.39,9.43,7.03-.1.97-1.02,1.47-2.23,1.57l-20.61,1.59,2.12,27.37,17.15-1.33,4.88-7.87s6.62,4.54,10.45,7.82c-.1.97-1.02,1.47-2.32,1.57l-70.93,5.48-.89-2.46,31.09-2.4-2.12-27.37-20.96,1.62-.89-2.46,40.97-3.17,4.43-6.96-2.68.21c-10.05.78-11.1-.45-11.85-10.15l-.88-11.43-31.27,2.42c1.56,6.67-.42,11.45-3.49,13.51-2.8,2.13-6.86,1.49-8.32-1.71-1.19-3.04.52-5.62,3.11-7.12,2.88-2.14,5.45-7.22,4.35-12.53l1.21-.18c1.11,2,1.95,3.86,2.53,5.64l25.12-1.94c-.98-.27-1.88-.64-2.89-1.34-.33-4.24-2.67-8.59-5.15-11.36l.58-.39c18.04.09,17.35,10.25,11.7,12.77l22.6-1.75,5.1-6.14,10.42,8.52c-.63.83-1.57,1.17-3.29,1.39-2.8,3.18-7.87,7.58-12.02,10.16l-.65-.56ZM366.27,44.85c14.11-7.89,20.16-17.59,21.99-27.66l13.57,5.4c-.26,1.15-1.25,1.93-4.02,2.05-5.51,9.92-14.4,17.67-30.95,21.13l-.59-.91Z"/>
        <path class="cls-3" d="M459.26,26.81c23.63,2.33,15.6,19.6,6.59,13.44-.91-4.65-4.32-9.77-7.31-12.95l.72-.49ZM487.34,19.6c-3.92,11.21-11.16,32.17-12.52,37.15-.93,3.09-1.69,6.27-1.7,8.53-.14,4.86,3.28,7.98,2.65,15.78-.38,4.33-3.47,7.14-7.63,6.95-2.08-.1-4.11-1.32-4.65-4.65,2.08-9.12,2.02-17.21.01-18.78-1.17-.92-2.63-1.34-4.45-1.6l.08-1.65,3.9.18c1.39.07,1.65.08,2.69-1.7q2.07-3.29,20.34-40.61l1.29.41ZM467.39,7.36c24.45,3.32,15.88,21.18,6.54,14.48-.9-4.91-4.21-10.37-7.26-13.99l.72-.49ZM531.38,29.93s5.51,4.95,8.75,8.24c-.31.94-1.19,1.34-2.41,1.28l-31.85-1.49c-1.59,4.19-3.97,10.51-5.83,14.94l21.69,1.02,5.35-4.71,8.58,7.97c-.64.67-1.79,1.13-3.71,1.3-2.39,15.71-5.9,25.64-11.1,28.96-3.05,1.94-6.74,2.73-12.03,2.48.13-2.69-.19-5.14-1.6-6.6-1.49-1.55-4.9-3.01-8.86-3.98l.05-1.13c4.32.55,10.98,1.38,13.06,1.48,1.56.07,2.44-.15,3.34-.8,2.78-1.78,5.53-10.26,7.49-22.52l-22.56-1.06-4.03,4.25-9.53-6.27c.9-.74,2.16-1.46,3.48-1.92,1.76-4.18,3.95-10.16,5.17-13.93l-11.28-.53-.58-2.46,43.21,2.03,5.18-6.54ZM490.45,18.18l-.58-2.55,31.24,1.46,5.26-6.54s5.51,4.95,8.65,8.32c-.31.94-1.19,1.34-2.41,1.28l-42.17-1.98Z"/>
        <path class="cls-2" d="M579.45,26.75v14.07c0,12.94-1.74,30.49-20.76,41.35l-.78-.78c10.25-11.99,11.47-27.02,11.47-40.57v-13.2c-3.47,2.17-7.12,4.08-10.77,5.56l-.69-.87c9.9-7.12,19.63-20.24,23.97-32.05l14.42,3.65c-.35,1.04-1.13,1.48-3.47,1.3-1.13,1.74-2.43,3.47-3.82,5.21h14.94l5.56-5.47,9.38,8.25c-.7.69-1.65.96-3.48,1.13-4.08,3.13-9.64,7.12-15.03,9.9h21.8l5.73-7.64s6.6,5.13,10.51,8.77c-.26.96-1.22,1.39-2.52,1.39h-56.46ZM586.92,12.86c-3.04,3.47-6.6,6.78-10.42,9.82l4.52,1.56h16.68c2.26-3.3,4.6-7.9,6.25-11.38h-17.03ZM635.05,70.27c3.3,1.04,4.34,2.17,4.34,4,0,4.6-4.52,6.17-25.36,6.17h-13.72c-11.03,0-14.25-1.48-14.25-9.21V31.88l10.86,4.17h16.94l4.86-4.6,8.69,7.12c-.61.69-1.56,1.13-3.3,1.39-.26,12.86-1.13,18.42-4.52,20.85-2.26,1.65-5.21,2.43-9.38,2.43,0-2.61-.26-4.95-1.39-6.25-1.04-1.22-3.39-2.26-6.25-2.87v-1.13c2.52.17,6.86.43,8.25.43,1.22,0,1.74-.17,2.26-.52.96-1.04,1.3-5.56,1.56-14.33h-18.94v30.49c0,1.91.87,2.43,5.47,2.43h13.72c5.04,0,9.38,0,11.38-.17,1.65-.09,2.52-.43,3.3-1.22,1.13-1.39,2.43-4.69,4.26-9.56h.96l.26,9.73Z"/>
        <path class="cls-2" d="M736.43,14.51c-.61.69-1.56.87-3.3,1.04-2.95,2.61-8.08,6.17-11.99,8.08l-.87-.52c.87-2.52,1.82-6.43,2.52-9.56h-55.42c.35,5.99-2,10.16-4.95,12.07-2.61,1.82-6.6,1.13-7.82-2-.96-2.78.69-5.21,3.21-6.51,3.21-1.74,6.69-6.17,6.6-11.12h1.3c.69,1.82,1.13,3.56,1.39,5.13h24.41c-.61-.26-1.3-.52-2-1.04-.26-3.39-2.35-7.21-4.34-9.29l.61-.43c16.07-.17,14.85,8.95,9.64,10.77h26.93l5.13-5.21,8.95,8.6ZM723.4,41.78s5.65,4.17,9.12,7.21c-.26.96-1.13,1.39-2.35,1.39h-71.75l-.69-2.52h31.45v-8.6h-25.89l-.69-2.43h26.58v-7.64c-7.73.26-15.9.26-23.54-.17l-.26-1.39c7.64-.61,15.98-1.74,23.8-3.21v-8.69l12.68,1.3c-.17.96-.78,1.82-2.61,2.08v3.21c5.56-1.22,10.51-2.61,14.25-3.82l8.43,8.6c-.87.69-2.69.78-5.21-.35-5.04.78-11.12,1.39-17.46,1.82v8.25h12.42l4.78-5.73s5.39,3.91,8.69,6.78c-.26.96-1.04,1.39-2.26,1.39h-23.63v8.6h19.11l5.04-6.08ZM714.36,51.08l9.9,7.38c-.52.69-1.74,1.48-3.56,1.82v18.85c-.09.61-5.13,2.35-8.34,2.35h-1.74v-6.08h-32.66v3.47c0,.87-4.43,2.95-8.51,2.95h-1.48v-29.79l10.6,4.08h31.18l4.6-5.04ZM710.63,72.97v-14.33h-32.66v14.33h32.66Z"/>
      </g>
    </g>
  </g>
</svg>