<?xml version="1.0" encoding="UTF-8"?>
<svg id="_圖層_2" data-name="圖層 2" xmlns="http://www.w3.org/2000/svg" xmlns:xlink="http://www.w3.org/1999/xlink" viewBox="0 0 162.63 73.28">
  <defs>
    <style>
      .cls-1 {
        fill: none;
      }

      .cls-2 {
        fill: #68df85;
      }

      .cls-3 {
        clip-path: url(#clippath);
      }
    </style>
    <clipPath id="clippath">
      <rect class="cls-1" x="0" width="162.63" height="49.12"/>
    </clipPath>
  </defs>
  <g id="_圖層_1-2" data-name="圖層 1">
    <g>
      <g class="cls-3">
        <path class="cls-2" d="M34.06,44.47c-.74.35-1.19.54-2.37,1.09v-16.18h2.37v15.09h0ZM29.31,46.2c-.74.25-1.39.4-2.33.59V14.1h2.33v32.1h0ZM24.61,46.94c-.35.05-.45.05-.94.05-.74,0-.99,0-1.39-.05V14.1h2.32v32.85h0ZM19.92,46.75c-.84-.15-.89-.15-1.19-.25-.25-.05-.35-.05-1.14-.25V14.1h2.32v32.65h0ZM29.36,12.37l-5.89-4.55-5.89,4.55-1.29-1.68,7.17-5.59,7.17,5.59-1.29,1.68h0ZM15.22,45.51c-.45-.1-1.48-.59-2.32-1.04v-15.09h2.32v16.13h0ZM10.57,43.13c-3.36-2.42-5.14-4.2-6.83-6.78C1.32,32.6-.02,28.05-.02,23.55-.02,10.54,10.47,0,23.48,0s23.5,10.54,23.5,23.5c0,5.34-1.83,10.68-5.05,14.64-1.34,1.68-2.47,2.67-5.54,5v-13.75h2.32v9.4c1.73-2.03,2.57-3.26,3.41-4.75,1.73-3.07,2.67-6.88,2.67-10.54,0-11.87-9.55-21.52-21.32-21.52S2.16,11.62,2.16,23.64c0,5.49,1.93,10.34,6.03,15.14v-9.4h2.37v13.75h0Z"/>
      </g>
      <path class="cls-2" d="M87.83,11.97c-.1-2.67-.59-3.71-1.73-3.71s-1.73,1.14-2.03,3.71h3.76ZM84.07,13.16c.25,3.36,1.09,4.75,2.87,4.75.89,0,1.53-.45,2.28-1.58l1.09.45c-1.24,2.23-2.13,2.87-4.06,2.87-2.97,0-4.65-2.13-4.65-5.99,0-4.11,1.73-6.58,4.6-6.58s4.11,1.98,4.16,6.08h-6.28ZM78.93,36.31c0,2.08.49,3.02,1.68,3.02s1.68-.94,1.68-2.77c0-2.18-.59-3.22-1.78-3.22-1.09,0-1.58.94-1.58,2.97h0ZM78.83,44.22c-.64.59-.89,1.09-.89,1.83,0,1.09.99,1.73,2.62,1.73,2.03,0,3.56-.84,3.56-2.03,0-1.04-.54-1.24-4.35-1.48l-.94-.05h0ZM83.97,34.08c.69.89.89,1.48.89,2.42,0,2.28-1.78,3.96-4.16,3.96-.49,0-.89-.05-1.34-.2-.59.4-.94.79-.94,1.09s.3.45,1.04.49l2.97.15c2.33.1,3.41.99,3.41,2.82,0,2.62-2.32,4.3-5.89,4.3-2.67,0-4.4-.99-4.4-2.52,0-.99.49-1.63,1.93-2.57-.99-.4-1.39-.84-1.39-1.53,0-.89.64-1.68,2.23-2.67-1.48-.94-2.03-1.88-2.03-3.41,0-2.32,1.78-4.11,4.11-4.11.49,0,.69.05,1.58.25.49.15.84.2,1.09.2.05,0,.25,0,.45-.05h.45l2.03-.05v1.43h-2.03ZM72.65,13.45c0,3.17.79,4.95,2.18,4.95,1.48,0,2.28-1.88,2.28-5.59,0-2.97-.79-4.6-2.18-4.6s-2.28,1.93-2.28,5.24h0ZM79.77,13.11c0,3.91-2.03,6.53-5,6.53s-4.75-2.47-4.75-6.08c0-3.86,2.03-6.53,5-6.53s4.75,2.42,4.75,6.08h0ZM69.43,44.67v-.99l1.29-.25v-7.22c0-1.39-.45-2.03-1.39-2.03-.74,0-1.38.3-2.32,1.09v8.06l1.29.3v1.04h-5.09v-.99l1.43-.3v-9l-1.43-.2v-.99l3.07-.79h.69v1.48c1.48-1.14,2.18-1.43,3.26-1.43,1.88,0,2.92,1.19,2.92,3.22v7.67l1.29.3v1.04h-5ZM59.98,18.01c.49.3.84.4,1.53.4,2.32,0,3.76-1.43,3.76-3.76s-1.34-3.56-4.2-3.56h-1.09v6.93h0ZM61.22,9.89c2.13,0,3.12-1.09,3.12-3.41,0-1.98-1.04-3.17-2.82-3.17-.49,0-.84.05-1.53.3v6.28h1.24ZM55.93,44.67v-.99l1.58-.3v-14.44l-1.58-.25v-1.09h5.69v1.04l-1.48.3v14.39l1.43.3v1.04h-5.64ZM60.92,2.32c.74-.05,1.34-.1,1.53-.1,2.82,0,4.7,1.63,4.7,4.16,0,1.73-.94,2.97-2.97,3.96,2.57.54,3.96,2.18,3.96,4.6,0,1.88-1.04,3.46-2.67,4.11-.74.3-1.63.4-3.26.4h-1.53c-.84-.05-1.48-.05-1.98-.05h-2.87v-.99l1.68-.3V3.71l-1.68-.3v-1.04h3.02l2.08-.05h0Z"/>
      <path class="cls-2" d="M123.45,37.25c-.05-2.57-.54-3.71-1.68-3.71s-1.78,1.09-2.08,3.71h3.76ZM119.69,38.39c.25,3.41,1.09,4.8,2.87,4.8.94,0,1.58-.45,2.33-1.58l1.09.45c-1.14,2.13-2.18,2.87-4.11,2.87-2.97,0-4.65-2.23-4.65-6.03,0-4.11,1.73-6.53,4.6-6.53,1.98,0,3.26,1.04,3.86,2.97.2.64.25,1.43.35,3.07h-6.33ZM117.27,2.82c0,.89-.69,1.58-1.58,1.58s-1.58-.69-1.58-1.58.69-1.58,1.58-1.58,1.58.69,1.58,1.58h0ZM113.36,19.39v-.99l1.34-.3v-8.9l-1.34-.3v-.84l3.12-.79h.59v10.83l1.39.25v1.04h-5.09ZM108.31,9.45c.99-1.68,1.48-2.13,2.37-2.13s1.43.54,1.43,1.43c0,.54-.3.99-.94,1.48l-1.29-.69c-.84.45-1.53,1.38-1.53,2.08v6.48l1.73.25v1.04h-5.49v-.99l1.43-.3v-9.1l-1.43-.25v-.79l2.97-.79h.74v2.28h0ZM110.69,44.67v-.99l1.19-.25v-6.73c0-1.78-.4-2.42-1.43-2.42-.69,0-1.29.3-2.28,1.14v7.91l1.19.3v1.04h-5v-.99l1.43-.3v-15.14l-1.39-.25v-.84l3.12-.69h.64v7.52c1.34-1.09,2.13-1.43,3.26-1.43,1.83,0,2.87,1.14,2.87,3.17v7.62l1.34.3v1.04h-4.95ZM97.58,44.67v-.99l1.43-.3v-15.24l-1.38-.15v-.84l3.12-.69h.64v16.87l1.34.3v1.04h-5.14ZM98.02,19.39v-.99l1.19-.25v-6.68c0-1.78-.4-2.42-1.43-2.42-.74,0-1.29.25-2.28,1.09v7.96l1.19.25v1.04h-5.05v-.99l1.48-.3V3.02l-1.39-.3v-.84l3.07-.64h.69v7.47c1.38-1.09,2.18-1.43,3.22-1.43,1.93,0,2.92,1.14,2.92,3.36v7.47l1.29.25v1.04h-4.9ZM93.57,37.25c-.05-2.57-.54-3.71-1.68-3.71s-1.78,1.09-2.08,3.71h3.76ZM89.81,38.39c.25,3.41,1.09,4.8,2.87,4.8.94,0,1.58-.45,2.32-1.58l1.09.45c-1.14,2.13-2.18,2.87-4.11,2.87-2.97,0-4.65-2.23-4.65-6.03,0-4.11,1.73-6.53,4.6-6.53,1.98,0,3.26,1.04,3.86,2.97.2.64.25,1.43.35,3.07h-6.33Z"/>
      <path class="cls-2" d="M158.82,9.45c.99-1.68,1.48-2.13,2.37-2.13s1.43.54,1.43,1.43c0,.54-.3.99-.94,1.48l-1.29-.69c-.84.45-1.53,1.38-1.53,2.08v6.48l1.73.25v1.04h-5.49v-.99l1.43-.3v-9.1l-1.43-.25v-.79l2.97-.79h.74v2.28h0ZM150.56,11.97c-.1-2.67-.59-3.71-1.73-3.71s-1.73,1.14-2.03,3.71h3.76ZM146.8,13.16c.25,3.36,1.09,4.75,2.87,4.75.89,0,1.53-.45,2.28-1.58l1.09.45c-1.24,2.23-2.13,2.87-4.06,2.87-2.97,0-4.65-2.13-4.65-5.99,0-4.11,1.73-6.58,4.6-6.58s4.11,1.98,4.16,6.08h-6.28ZM135.87,11.03c0,2.08.49,3.02,1.68,3.02s1.68-.94,1.68-2.77c0-2.18-.59-3.22-1.78-3.22-1.09,0-1.58.94-1.58,2.97h0ZM134.88,20.78c0,1.09.99,1.73,2.62,1.73,2.03,0,3.56-.89,3.56-2.03s-.4-1.24-5.29-1.53c-.64.59-.89,1.09-.89,1.83h0ZM147.29,44.67v-.99l1.34-.3v-6.88c0-1.63-.45-2.28-1.48-2.28-.79,0-1.34.3-2.32,1.19v7.91l1.24.3v1.04h-5v-.99l1.38-.3v-6.93c0-1.53-.49-2.23-1.58-2.23-.79,0-1.38.3-2.23,1.14v7.96l1.14.3v1.04h-5.05v-.99l1.43-.3v-9.1l-1.43-.25v-.84l3.12-.79h.64v1.63c1.24-1.04,2.18-1.43,3.36-1.43s2.08.49,2.77,1.58c1.29-1.19,2.13-1.63,3.41-1.63,2.13,0,3.02,1.04,3.02,3.51v7.27l1.39.3v1.04h-5.14ZM140.91,8.8c.69.89.89,1.48.89,2.42,0,2.28-1.78,3.96-4.16,3.96-.49,0-.89-.05-1.34-.2-.59.4-.94.79-.94,1.04,0,.35.3.49,1.04.54l2.97.15c2.33.1,3.41.99,3.41,2.82,0,2.62-2.33,4.3-5.89,4.3-2.67,0-4.4-.99-4.4-2.52,0-.99.54-1.68,1.93-2.57-.99-.4-1.39-.89-1.39-1.58,0-.84.64-1.63,2.23-2.62-1.48-.94-2.03-1.88-2.03-3.41,0-2.32,1.78-4.11,4.11-4.11.49,0,.69.05,1.58.25.49.15.84.2,1.09.2.05,0,.25,0,.45-.05h.45l2.03-.05v1.43h-2.03ZM131.91,28.05c0,.89-.74,1.63-1.63,1.63s-1.58-.69-1.58-1.58.74-1.63,1.68-1.63c.84,0,1.53.74,1.53,1.58h0ZM127.95,44.67v-.99l1.34-.3v-8.95l-1.34-.3v-.79l3.12-.79h.59v10.78l1.39.3v1.04h-5.09ZM126.42,19.39v-.99l1.29-.25v-7.22c0-1.38-.45-2.03-1.38-2.03-.74,0-1.39.3-2.32,1.09v8.06l1.29.3v1.04h-5.09v-.99l1.43-.3v-9l-1.43-.2v-.99l3.07-.79h.69v1.48c1.48-1.14,2.18-1.43,3.26-1.43,1.88,0,2.92,1.19,2.92,3.22v7.67l1.29.3v1.04h-5Z"/>
      <path class="cls-2" d="M57.6,62.53h4.56l.57-2.61h-6.91v-.83h15.08v.83h-7.29l-.57,2.61h6.15v10.68h-.89v-1.21h-9.82v1.21h-.89v-10.68ZM58.49,63.36v3.56h9.82v-3.56h-9.82ZM58.49,67.68v3.62h9.82v-3.62h-9.82Z"/>
      <path class="cls-2" d="M74.73,68.38h13.31v.57h-2.28c-.13.25-.25.47-.38.64.3.17.82.47,1.58.89.55.3.93.51,1.14.64l-.44.51c-.17-.09-.51-.25-1.01-.51-.8-.47-1.35-.78-1.65-.95-.42.55-1.08,1.02-1.96,1.4-.09-.13-.28-.28-.57-.45,1.14-.55,1.96-1.27,2.47-2.16h-3.17v3.12h7.03v.64h-14.83v-.64h7.03v-3.12h-2.92c-.04.13-.15.28-.32.45-.04.09-.09.15-.13.19.46.25,1.22.7,2.28,1.34l-.44.51s-.11-.02-.19-.06c-.93-.59-1.63-1.02-2.09-1.27-.47.59-1.14,1.06-2.03,1.4-.13-.08-.32-.21-.57-.38,1.14-.55,2.03-1.27,2.66-2.16h-2.54v-.57ZM74.35,60.43h6.65v-1.08h-5.77v-.57h12.11v.57h-5.58v1.08h6.65v2.42h-.76v-1.84h-5.89v2.92h-.76v-2.92h-5.96v1.84h-.7v-2.42ZM75.05,64.76h3.49v2.48h-3.49v-2.48ZM75.81,65.26v1.46h2.03v-1.46h-2.03ZM76.12,61.83h3.8v.57h-3.8v-.57ZM76.12,63.23h3.8v.51h-3.8v-.51ZM79.67,64.76h3.49v2.48h-3.49v-2.48ZM80.37,65.26v1.46h2.03v-1.46h-2.03ZM86.58,61.83v.57h-3.74v-.57h3.74ZM86.58,63.23v.51h-3.74v-.51h3.74ZM87.72,64.76v2.48h-3.49v-2.48h3.49ZM84.93,65.26v1.46h2.03v-1.46h-2.03Z"/>
      <path class="cls-2" d="M92.3,66.22c-.04-.13-.11-.3-.19-.51-.13-.21-.21-.36-.25-.45,1.61-2.08,2.85-4.47,3.74-7.18l.82.25c-.25.76-.68,1.8-1.27,3.12-.13.25-.21.44-.25.57v11.25h-.89v-9.66c-.38.76-.95,1.63-1.71,2.61ZM101.3,65.77h.82v2.1h4.31v.83h-4.31v2.99h5.01v.83h-10.84v-.83h5.01v-2.99h-4.18v-.83h4.18v-2.1ZM101.3,58.21h.82v2.35h4.18v.83h-4.18v2.8h4.75v.83h-10.33v-.83h4.75v-2.8h-4.12v-.83h4.12v-2.35Z"/>
      <path class="cls-2" d="M110.19,72.7c.97-1.44,1.42-3.62,1.33-6.55v-7.12c2.32-.17,4.18-.36,5.58-.57l.32.7c-1.61.25-3.3.44-5.07.57v1.4h4.63v5.28h-4.63c0,.21-.02.51-.06.89v.76h4.63c-.04,1.31-.13,2.35-.25,3.12-.04.97-.68,1.46-1.9,1.46h-1.58c-.13-.3-.21-.59-.25-.89.42.04.99.06,1.71.06.76.04,1.18-.21,1.27-.76.08-.85.13-1.59.13-2.23h-3.8c-.13,1.74-.59,3.22-1.39,4.45-.21-.25-.42-.45-.63-.57ZM116.14,61.89h-3.8v1.53h3.8v-1.53ZM112.34,64.12v1.59h3.8v-1.59h-3.8ZM117.92,66.22v-.76h6.59v.83c-.59,1.61-1.39,2.97-2.41,4.07.76.68,1.92,1.31,3.49,1.91-.04.08-.15.23-.32.45-.08.17-.15.3-.19.38-1.44-.72-2.64-1.44-3.61-2.16-1.1.85-2.54,1.63-4.31,2.35-.04-.09-.13-.21-.25-.38-.08-.17-.17-.3-.25-.38,1.99-.72,3.4-1.44,4.25-2.16-.97-1.02-1.75-2.39-2.35-4.13h-.63ZM124.51,63.42h1.2c0,.09-.02.21-.06.38,0,.17-.02.3-.06.38h-1.27c-.97.04-1.44-.42-1.39-1.4v-3.12h-2.85v.76c.08,1.87-.59,3.33-2.03,4.39-.08-.13-.23-.3-.44-.51-.04-.04-.08-.08-.13-.13,1.27-.8,1.86-2.03,1.77-3.69v-1.59h4.5v3.81c-.04.51.21.74.76.7ZM123.69,66.22h-4.25c.46,1.36,1.16,2.52,2.09,3.5.89-.93,1.61-2.1,2.15-3.5Z"/>
      <path class="cls-2" d="M129.21,68.95c-.08-.13-.19-.34-.32-.64-.04-.13-.08-.21-.13-.25,1.01-1.65,1.86-3.64,2.54-5.98h-2.15v-.76h2.15v-3.24h.82v3.24h1.96v.76h-1.96v1.97l.51-.45c.55.55,1.14,1.14,1.77,1.78l-.63.51c-.51-.59-1.06-1.14-1.65-1.65v9.03h-.82v-9.73c-.55,2.2-1.25,4.01-2.09,5.4ZM134.79,63.67c-.08-.13-.23-.3-.44-.51-.04-.04-.08-.08-.13-.13,1.39-1.44,2.49-3.09,3.3-4.96l.82.25c-.25.51-.51,1-.76,1.46h5.64v.83c-.8,1.48-1.86,2.76-3.17,3.81,1.14.76,2.56,1.36,4.25,1.78-.04.09-.11.21-.19.38-.13.21-.21.36-.25.45-1.86-.55-3.38-1.25-4.56-2.1-1.31.89-2.98,1.68-5.01,2.35-.04-.08-.15-.23-.32-.45-.08-.17-.15-.3-.19-.38,2.07-.64,3.68-1.34,4.82-2.1-.8-.76-1.52-1.67-2.15-2.73-.47.68-1.01,1.36-1.65,2.03ZM135.36,67.55h7.67v5.72h-.82v-.89h-5.96v.89h-.89v-5.72ZM136.25,68.32v3.31h5.96v-3.31h-5.96ZM142.33,60.56h-5.2s-.02.06-.06.06c-.04.04-.06.13-.06.25.63,1.23,1.42,2.23,2.34,2.99,1.06-.76,2.05-1.86,2.98-3.31Z"/>
      <path class="cls-2" d="M147.42,59.86h2.54v-1.59h.82v1.59h2.54v.7h-2.54v1.84h2.03v5.47h-2.03v1.91h2.47v.7h-2.47v2.8h-.82v-2.8h-2.6v-.7h2.6v-1.91h-2.09v-5.47h2.09v-1.84h-2.54v-.7ZM148.69,63.1v1.72h3.36v-1.72h-3.36ZM148.69,65.46v1.72h3.36v-1.72h-3.36ZM162.12,62.91c-1.94-1.02-3.36-2.23-4.25-3.62-.97,1.36-2.37,2.59-4.18,3.69-.17-.21-.36-.45-.57-.7,2.11-1.1,3.65-2.52,4.63-4.26l.89.19s-.09.11-.13.19c-.09.13-.15.21-.19.25,1.06,1.53,2.49,2.69,4.31,3.5-.04.09-.13.21-.25.38-.09.17-.17.3-.25.38ZM153.95,70.61l-.44-.76c1.01-.47,2.01-.97,2.98-1.53v-4.39h-2.6v-.76h3.42v8.27c0,1.1-.53,1.65-1.58,1.65-.38.04-.91.06-1.58.06,0-.25-.04-.53-.13-.83.3.04.78.06,1.46.06s1.01-.32,1.01-.95v-2.23c-.8.42-1.65.89-2.54,1.4ZM153.88,65.2l.7-.25c.34.76.65,1.61.95,2.54l-.76.25c-.13-.42-.34-1.02-.63-1.78-.13-.34-.21-.59-.25-.76ZM158.45,70.1l-.44-.76c.97-.47,1.9-.95,2.79-1.46v-3.94h-2.66v-.76h3.49v8.27c0,1.1-.53,1.65-1.58,1.65-.34.04-.82.06-1.46.06,0-.09-.02-.21-.06-.38-.04-.21-.09-.36-.13-.45.17,0,.42.02.76.06h.7c.68.04.99-.28.95-.95v-2.73c-.76.42-1.54.89-2.35,1.4ZM158.06,65.01l.7-.19c.21.47.49,1.17.82,2.1.04.17.08.3.13.38l-.7.25c-.09-.3-.23-.72-.44-1.27-.21-.55-.38-.97-.51-1.27Z"/>
    </g>
  </g>
</svg>